<svg width="11" height="6" viewBox="0 0 11 6" fill="none" xmlns="http://www.w3.org/2000/svg">
<path d="M10.8585 2.34363L7.74746 0.0891087C7.66376 0.0311685 7.55196 -0.000810968 7.436 1.56344e-05C7.32004 0.000842237 7.20914 0.0344093 7.12704 0.0935314C7.04493 0.152654 6.99814 0.232633 6.99669 0.316348C6.99524 0.400064 7.03924 0.480864 7.11927 0.541452L9.45755 2.23564H0.795759C0.735315 2.23297 0.674753 2.23925 0.617801 2.25411C0.560849 2.26897 0.508713 2.29209 0.464602 2.32205C0.420492 2.352 0.385341 2.38816 0.361313 2.42829C0.337286 2.46842 0.32489 2.51168 0.32489 2.5554C0.32489 2.59912 0.337286 2.64238 0.361313 2.68251C0.385341 2.72264 0.420492 2.7588 0.464602 2.78875C0.508713 2.81871 0.560849 2.84183 0.617801 2.85669C0.674753 2.87155 0.735315 2.87783 0.795759 2.87516H9.49245L7.12093 4.56815C7.07581 4.5971 7.03935 4.6324 7.01378 4.67188C6.98821 4.71136 6.97407 4.75419 6.97221 4.79775C6.97036 4.84131 6.98084 4.88469 7.00301 4.92523C7.02518 4.96577 7.05857 5.00261 7.10114 5.03351C7.14371 5.06441 7.19457 5.08871 7.2506 5.10493C7.30663 5.12115 7.36665 5.12895 7.427 5.12784C7.48734 5.12673 7.54674 5.11675 7.60156 5.0985C7.65637 5.08025 7.70546 5.05411 7.7458 5.02169L10.8569 2.79717C10.8982 2.76741 10.9309 2.73207 10.9533 2.69315C10.9757 2.65424 10.9872 2.61253 10.9872 2.5704C10.9872 2.52827 10.9757 2.48656 10.9533 2.44764C10.9309 2.40873 10.8982 2.37338 10.8569 2.34363H10.8585Z" fill="#3A2065"/>
</svg>
