<svg width="899" height="626" viewBox="0 0 899 626" fill="none" xmlns="http://www.w3.org/2000/svg">
<path d="M3 322.207C20.3285 309.481 36.7591 295.044 53.3669 281.513C108.199 236.839 163.692 193.008 222.146 153.094C286.814 108.937 353.966 68.1602 424.781 34.5984C447.752 23.7118 475.677 11.0853 501.332 5.41229C513.253 2.77626 523.674 0.00463867 532.103 10.5824C548.786 31.5177 530.763 71.7614 521.346 89.8853C488.665 152.776 438.871 207.846 384.421 252.494C327.661 299.035 263.265 331.725 195.128 358.064C170.021 367.769 117.947 384.483 90.058 391.753C88.6989 392.107 50.4901 401.7 42.026 398.925C39.4247 398.072 38.3274 394.133 38.6905 391.42C40.6134 377.049 60.238 353.644 66.2088 346.39C108.473 295.042 159.709 251.279 212.473 211.133C272.826 165.212 336.892 124.612 403.6 88.6344C418.426 80.6386 433.241 72.5507 448.63 65.7025C455.546 62.6249 462.765 58.355 470.312 58.948C482.792 59.9286 461.78 83.0063 453.884 92.7205C378.238 185.783 272.243 248.215 171.529 310.282C132.192 334.525 86.3737 355.995 67.3763 400.759C59.445 419.448 61.0526 438.56 81.052 449.125C107.729 463.217 142.294 463.637 171.279 463.885C262.098 464.659 352.621 451.271 442.71 441.703C523.67 433.105 604.703 425.828 686.122 423.441C706.405 422.846 726.706 422.79 746.996 423.024C760.511 423.18 789.69 423.213 806.119 427.694C824.942 432.828 797.94 469.194 791.359 476.31C774.216 494.842 753.662 502.586 728.734 506.913C652.419 520.161 572.315 516.525 495.328 515.169C437.428 514.148 379.545 511.54 321.712 508.664C308.164 507.991 269.179 502.378 281.019 508.998C306.459 523.223 336.078 534.174 363.073 544.522C420.895 566.686 479.933 584.141 540.692 596.306C620.57 612.299 701.603 620.662 783.02 622.74C821.826 623.731 872.604 622.413 911.772 619.071C986.618 612.685 946.802 613.126 1020.68 604.395" stroke="white" stroke-width="5" stroke-linecap="round"/>
</svg>
