<svg width="20" height="19" viewBox="0 0 20 19" fill="none" xmlns="http://www.w3.org/2000/svg">
<g clip-path="url(#clip0_61_264)">
<path fill-rule="evenodd" clip-rule="evenodd" d="M6.07157 10.4048H13.6716V8.59525H6.07157V10.4048ZM9.87158 16.7381C5.68018 16.7381 2.27159 13.4909 2.27159 9.50001C2.27159 5.5082 5.68018 2.26192 9.87158 2.26192C14.062 2.26192 17.4716 5.5082 17.4716 9.50001C17.4716 13.4909 14.062 16.7381 9.87158 16.7381ZM9.87158 0.452393C4.62473 0.452393 0.371582 4.50301 0.371582 9.50001C0.371582 14.497 4.62473 18.5476 9.87158 18.5476C15.1175 18.5476 19.3716 14.497 19.3716 9.50001C19.3716 4.50301 15.1175 0.452393 9.87158 0.452393Z" fill="#3A2065"/>
</g>
<defs>
<clipPath id="clip0_61_264">
<rect width="19" height="19" fill="white" transform="translate(0.371582)"/>
</clipPath>
</defs>
</svg>
