<svg width="20" height="19" viewBox="0 0 20 19" fill="none" xmlns="http://www.w3.org/2000/svg">
<path fill-rule="evenodd" clip-rule="evenodd" d="M13.8895 9.5C13.8895 10.0244 13.4639 10.45 12.9395 10.45H11.0395V12.35C11.0395 12.8744 10.6139 13.3 10.0895 13.3C9.56514 13.3 9.13954 12.8744 9.13954 12.35V10.45H7.23954C6.71514 10.45 6.28954 10.0244 6.28954 9.5C6.28954 8.9756 6.71514 8.55 7.23954 8.55H9.13954V6.65C9.13954 6.1256 9.56514 5.7 10.0895 5.7C10.6139 5.7 11.0395 6.1256 11.0395 6.65V8.55H12.9395C13.4639 8.55 13.8895 8.9756 13.8895 9.5ZM10.0895 17.1C5.89909 17.1 2.48954 13.6904 2.48954 9.5C2.48954 5.30955 5.89909 1.9 10.0895 1.9C14.28 1.9 17.6895 5.30955 17.6895 9.5C17.6895 13.6904 14.28 17.1 10.0895 17.1ZM10.0895 0C4.84269 0 0.589539 4.25315 0.589539 9.5C0.589539 14.7469 4.84269 19 10.0895 19C15.3364 19 19.5895 14.7469 19.5895 9.5C19.5895 4.25315 15.3364 0 10.0895 0Z" fill="#3A2065"/>
</svg>
